<svg xmlns="http://www.w3.org/2000/svg" viewBox="0 0 26.083609 18.64904">
  <defs>
    <mask id="iris-cutout">
      <rect width="100%" height="100%" fill="white"/>
      <!-- Iris cutout (transparent area) -->
      <path d="m 12.443198,6.8999 c 0.54237,-0.001 1.08447,-0.005 1.62677,-0.01 1.87195,-0.004 3.39225,0.006 5.07256,0.4381 1.32284,0.69515 1.3999,1.17583 1.37976,2.10887 -0.0929,0.66051 -0.36891,1.11821 -1.39629,1.56951 -1.98314,0.40075 -4.06593,0.46954 -6.18464,0.4629 -0.36346,-0.00082 -0.36346,-0.00082 -0.73426,-0.002 -4.00515,-0.0334 -4.00515,-0.0334 -5.540291,-0.67407 -1.112846,-0.66329 -1.132557,-1.32261 -1.101744,-2.15847 0.113811,-0.51832 0.427284,-0.79821 1.14205,-1.17481 1.777705,-0.64424 3.612805,-0.55777 5.736085,-0.56079 z" fill="black"/>
    </mask>
  </defs>

  <!-- Outer eye shape with iris cutout -->
  <path d="m 12.87521,0.0128 c 0.44996,-0.006 0.44996,-0.006 0.90899,-0.0129 3.68008,-0.002 7.4128,0.69839 10.17561,3.2737 1.25701,1.39395 1.96611,2.87582 2.06189,4.7594 0.0164,0.24011 0.0327,0.48022 0.0496,0.72761 0.10102,2.47516 -0.40529,4.3332 -2.00091,6.25078 -1.53068,1.60834 -3.07336,2.2836 -5.19245,2.8112 -0.16331,0.0451 -0.32661,0.0903 -0.49487,0.13681 -4.68153,1.19458 -10.68076,0.93262 -14.900574,-1.54241 -1.751349,-1.23409 -2.950006,-2.80644 -3.389974,-4.9444 -0.215051,-2.84269 -0.197998,-5.45016 1.669148,-7.71323 C 4.751003,0.49193 8.59728,0.00995 12.87521,0.0128 z"
        fill="#000000"
        mask="url(#iris-cutout)"/>

  <!-- Pupil (solid black) -->
  <ellipse cx="13.148" cy="9.155" rx="2.007" ry="1.824" fill="#000000"/>
</svg>
